<?xml version="1.0"?>
<svg xmlns="http://www.w3.org/2000/svg" xmlns:xlink="http://www.w3.org/1999/xlink" xmlns:svgjs="http://svgjs.com/svgjs" version="1.1" width="512" height="512" x="0" y="0" viewBox="0 0 128 128" style="enable-background:new 0 0 512 512" xml:space="preserve" class=""><g><g xmlns="http://www.w3.org/2000/svg"><path d="m38.735 35.265a28.735 28.735 0 1 0 28.735 28.735 28.768 28.768 0 0 0 -28.735-28.735zm0 53.97a25.191 25.191 0 0 1 -19.384-9.1l1.5-3.159a5.271 5.271 0 0 1 4.745-3h26.282a5.273 5.273 0 0 1 4.746 3l1.495 3.159a25.191 25.191 0 0 1 -19.384 9.1zm21.7-12.381-.65-1.374a8.789 8.789 0 0 0 -7.91-5.007h-26.284a8.787 8.787 0 0 0 -7.909 5.007l-.65 1.375a25.235 25.235 0 1 1 43.406 0z" fill="#178939" data-original="#000000" style="" class=""/><path d="m38.735 43.117a10.438 10.438 0 0 0 -10.427 10.426v3a10.427 10.427 0 1 0 20.854 0v-3a10.439 10.439 0 0 0 -10.427-10.426zm6.927 13.423a6.927 6.927 0 1 1 -13.854 0v-3a6.927 6.927 0 0 1 13.854 0z" fill="#178939" data-original="#000000" style="" class=""/><path d="m122.25 20.459h-116.5a5.757 5.757 0 0 0 -5.75 5.75v75.582a5.757 5.757 0 0 0 5.75 5.75h116.5a5.757 5.757 0 0 0 5.75-5.75v-75.582a5.757 5.757 0 0 0 -5.75-5.75zm2.25 81.332a2.252 2.252 0 0 1 -2.25 2.25h-116.5a2.252 2.252 0 0 1 -2.25-2.25v-75.582a2.252 2.252 0 0 1 2.25-2.25h116.5a2.252 2.252 0 0 1 2.25 2.25z" fill="#178939" data-original="#000000" style="" class=""/><path d="m116.25 35.265h-38.5a1.751 1.751 0 0 0 -1.75 1.75v10.008a1.75 1.75 0 0 0 1.75 1.75h38.5a1.75 1.75 0 0 0 1.75-1.75v-10.008a1.751 1.751 0 0 0 -1.75-1.75zm-1.75 10.008h-35v-6.508h35z" fill="#178939" data-original="#000000" style="" class=""/><path d="m116.25 56.264h-38.5a1.75 1.75 0 0 0 0 3.5h38.5a1.75 1.75 0 0 0 0-3.5z" fill="#178939" data-original="#000000" style="" class=""/><path d="m110.375 70.754a1.75 1.75 0 0 0 0-3.5h-26.75a1.75 1.75 0 0 0 0 3.5z" fill="#178939" data-original="#000000" style="" class=""/><path d="m116.25 78.245h-38.5a1.75 1.75 0 0 0 0 3.5h38.5a1.75 1.75 0 0 0 0-3.5z" fill="#178939" data-original="#000000" style="" class=""/><path d="m110.375 89.235h-26.75a1.75 1.75 0 0 0 0 3.5h26.75a1.75 1.75 0 0 0 0-3.5z" fill="#178939" data-original="#000000" style="" class=""/></g></g></svg>
