<?xml version="1.0" encoding="UTF-8" standalone="no"?>
<!DOCTYPE svg PUBLIC "-//W3C//DTD SVG 1.1//EN" "http://www.w3.org/Graphics/SVG/1.1/DTD/svg11.dtd">
<svg version="1.1" xmlns="http://www.w3.org/2000/svg" xmlns:xlink="http://www.w3.org/1999/xlink" preserveAspectRatio="xMidYMid meet" viewBox="0 0 460 250" width="460" height="250"><defs><path d="M5.78 235.71C5.78 213.59 5.78 36.62 5.78 14.5C5.78 9.57 9.83 5.58 14.8 5.57C51 5.57 438.77 5.57 445.66 5.57C450.65 5.58 454.68 9.57 454.68 14.5C454.68 18.85 513.86 37.37 513.86 51.37C513.86 64.03 454.68 71.51 454.68 88.38C454.68 147.57 454.68 221.89 454.68 235.71C454.68 240.65 450.65 244.64 445.66 244.64C359.5 244.64 57.89 244.64 14.8 244.64C9.83 244.64 5.78 240.65 5.78 235.71ZM7.79 14.5C7.79 36.62 7.79 213.59 7.79 235.71C7.79 239.55 10.93 242.66 14.8 242.67C57.89 242.67 402.57 242.67 445.66 242.67C449.53 242.66 452.67 239.55 452.67 235.71C452.67 213.59 452.67 36.62 452.67 14.5C452.67 10.66 449.53 7.55 445.66 7.55C359.5 7.55 100.98 7.55 14.8 7.55C10.93 7.55 7.79 10.66 7.79 14.5Z" id="g13Td9I0Tb"></path><path d="M68.91 102.29C68.91 96.73 68.91 52.3 68.91 46.74C68.92 41.81 72.95 37.82 77.92 37.81C84.74 37.81 139.25 37.81 146.06 37.81C151.04 37.82 155.08 41.81 155.08 46.74C155.08 52.3 155.08 96.73 155.08 102.29C155.08 107.22 151.04 111.21 146.06 111.21C146.06 111.21 84.74 111.21 77.92 111.21C72.95 111.21 68.92 107.22 68.91 102.29ZM70.91 46.74C70.91 52.3 70.91 96.73 70.91 102.29C70.92 106.12 74.05 109.23 77.92 109.24C84.74 109.24 139.25 109.24 146.06 109.24C149.93 109.23 153.07 106.12 153.07 102.29C153.07 96.73 153.07 52.3 153.07 46.74C153.07 42.9 149.93 39.79 146.06 39.79C132.44 39.79 91.56 39.79 77.92 39.79C74.05 39.79 70.92 42.9 70.91 46.74Z" id="aIkNswHmc"></path><path d="M68.91 102.29C68.91 96.73 68.91 52.3 68.91 46.74C68.92 41.81 72.95 37.82 77.92 37.81C84.74 37.81 139.25 37.81 146.06 37.81C151.04 37.82 155.08 41.81 155.08 46.74C155.08 52.3 155.08 96.73 155.08 102.29C155.08 107.22 151.04 111.21 146.06 111.21C146.06 111.21 84.74 111.21 77.92 111.21C72.95 111.21 68.92 107.22 68.91 102.29ZM70.91 46.74C70.91 52.3 70.91 96.73 70.91 102.29C70.92 106.12 74.05 109.23 77.92 109.24C84.74 109.24 139.25 109.24 146.06 109.24C149.93 109.23 153.07 106.12 153.07 102.29C153.07 96.73 153.07 52.3 153.07 46.74C153.07 42.9 149.93 39.79 146.06 39.79C132.44 39.79 91.56 39.79 77.92 39.79C74.05 39.79 70.92 42.9 70.91 46.74Z" id="ecEJZzH5dO"></path><path d="M58.89 145.45C58.89 149.02 61.8 151.9 65.4 151.9C98.37 151.9 362.09 151.9 395.06 151.9C398.66 151.9 401.58 149.02 401.58 145.45C401.58 141.9 398.66 139 395.06 139C329.13 139 131.34 139 65.4 139C61.8 139 58.89 141.9 58.89 145.45Z" id="c2r1wJgK1C"></path><path d="M58.89 145.45C58.89 149.02 61.8 151.9 65.4 151.9C98.37 151.9 362.09 151.9 395.06 151.9C398.66 151.9 401.58 149.02 401.58 145.45C401.58 141.9 398.66 139 395.06 139C329.13 139 131.34 139 65.4 139C61.8 139 58.89 141.9 58.89 145.45Z" id="biNv91Xjk"></path><path d="M170.11 74.52C170.11 70.95 173.03 68.07 176.62 68.07C190.76 68.07 303.78 68.07 317.91 68.07C321.5 68.07 324.42 70.95 324.42 74.52C324.42 78.07 321.5 80.96 317.91 80.96C289.65 80.96 204.88 80.96 176.62 80.96C173.03 80.96 170.11 78.07 170.11 74.52Z" id="e1Wj4HJAyR"></path><path d="M170.11 74.52C170.11 70.95 173.03 68.07 176.62 68.07C190.76 68.07 303.78 68.07 317.91 68.07C321.5 68.07 324.42 70.95 324.42 74.52C324.42 78.07 321.5 80.96 317.91 80.96C289.65 80.96 204.88 80.96 176.62 80.96C173.03 80.96 170.11 78.07 170.11 74.52Z" id="d2vQhAYBB7"></path><path d="M170.11 104.77C170.11 108.33 173.03 111.21 176.62 111.21C198.17 111.21 370.51 111.21 392.06 111.21C395.65 111.21 398.57 108.33 398.57 104.77C398.57 101.21 395.65 98.32 392.06 98.32C348.97 98.32 219.71 98.32 176.62 98.32C173.03 98.32 170.11 101.21 170.11 104.77Z" id="aCgI4ayzX"></path><path d="M170.11 104.77C170.11 108.33 173.03 111.21 176.62 111.21C198.17 111.21 370.51 111.21 392.06 111.21C395.65 111.21 398.57 108.33 398.57 104.77C398.57 101.21 395.65 98.32 392.06 98.32C348.97 98.32 219.71 98.32 176.62 98.32C173.03 98.32 170.11 101.21 170.11 104.77Z" id="c1ag6CHn6"></path><path d="M58.89 177.19C58.89 180.76 61.8 183.64 65.4 183.64C98.37 183.64 362.09 183.64 395.06 183.64C398.66 183.64 401.58 180.76 401.58 177.19C401.58 173.63 398.66 170.75 395.06 170.75C329.13 170.75 131.34 170.75 65.4 170.75C61.8 170.75 58.89 173.63 58.89 177.19Z" id="bllLWyMMF"></path><path d="M58.89 177.19C58.89 180.76 61.8 183.64 65.4 183.64C98.37 183.64 362.09 183.64 395.06 183.64C398.66 183.64 401.58 180.76 401.58 177.19C401.58 173.63 398.66 170.75 395.06 170.75C329.13 170.75 131.34 170.75 65.4 170.75C61.8 170.75 58.89 173.63 58.89 177.19Z" id="b1wC35WtF3"></path><path d="M58.89 208.94C58.89 212.5 61.8 215.38 65.4 215.38C98.37 215.38 362.09 215.38 395.06 215.38C398.66 215.38 401.58 212.5 401.58 208.94C401.58 205.37 398.66 202.49 395.06 202.49C329.13 202.49 131.34 202.49 65.4 202.49C61.8 202.49 58.89 205.37 58.89 208.94Z" id="ceJTcKCE0"></path><path d="M58.89 208.94C58.89 212.5 61.8 215.38 65.4 215.38C98.37 215.38 362.09 215.38 395.06 215.38C398.66 215.38 401.58 212.5 401.58 208.94C401.58 205.37 398.66 202.49 395.06 202.49C329.13 202.49 131.34 202.49 65.4 202.49C61.8 202.49 58.89 205.37 58.89 208.94Z" id="bRzSvcER"></path><path d="M117.72 92.94L117.72 94.45L102.53 94.45L102.53 92.94L108.61 92.94L108.61 74.41L91.37 57.32L128.9 57.32L111.65 74.41L111.65 92.94L117.72 92.94ZM94.95 54.58L125.32 54.58L125.32 56.08L94.95 56.08L94.95 54.58Z" id="b2u0bAoBZd"></path><path d="M170.11 48.14C170.11 51.69 172 54.58 174.32 54.58C183.45 54.58 256.49 54.58 265.62 54.58C267.94 54.58 269.83 51.69 269.83 48.14C269.83 44.57 267.94 41.69 265.62 41.69C247.36 41.69 192.58 41.69 174.32 41.69C172 41.69 170.11 44.57 170.11 48.14Z" id="cDOomGNse"></path><path d="M170.11 48.14C170.11 51.69 172 54.58 174.32 54.58C183.45 54.58 256.49 54.58 265.62 54.58C267.94 54.58 269.83 51.69 269.83 48.14C269.83 44.57 267.94 41.69 265.62 41.69C247.36 41.69 192.58 41.69 174.32 41.69C172 41.69 170.11 44.57 170.11 48.14Z" id="a8Dk6vEUi"></path><path d="M95.38 122.08L91.96 125.2L92.77 129.6L88.55 127.52L84.33 129.6L85.14 125.2L81.73 122.08L86.44 121.45L88.55 117.44L90.65 121.45L95.38 122.08Z" id="ceA5xtA8B"></path><path d="M111.43 122.08L108.01 125.2L108.82 129.6L104.6 127.52L100.39 129.6L101.19 125.2L97.78 122.08L102.49 121.45L104.6 117.44L106.71 121.45L111.43 122.08Z" id="a3y2jZm8Ey"></path><path d="M126.48 122.08L123.06 125.2L123.87 129.6L119.65 127.52L115.43 129.6L116.24 125.2L112.83 122.08L117.54 121.45L119.65 117.44L121.75 121.45L126.48 122.08Z" id="a31wUo8LPg"></path><path d="M140.74 121.56L137.32 124.68L138.13 129.08L133.91 127.01L129.7 129.08L130.5 124.68L127.09 121.56L131.81 120.92L133.91 116.92L136.02 120.92L140.74 121.56Z" id="e5qmhTkH3X"></path><path d="M3.67 5.57L456.05 5.57L456.05 244.64L3.67 244.64L3.67 5.57Z" id="b3Bxv9dV02"></path></defs><g><g><g><use xlink:href="#g13Td9I0Tb" opacity="1" fill="#000000" fill-opacity="0"></use><g><use xlink:href="#g13Td9I0Tb" opacity="1" fill-opacity="0" stroke="#000000" stroke-width="1" stroke-opacity="0"></use></g></g><g><use xlink:href="#aIkNswHmc" opacity="1" fill="#3f3d56" fill-opacity="1"></use><g><use xlink:href="#aIkNswHmc" opacity="1" fill-opacity="0" stroke="#000000" stroke-width="1" stroke-opacity="0"></use></g></g><g><use xlink:href="#ecEJZzH5dO" opacity="1" fill="#000000" fill-opacity="0"></use><g><use xlink:href="#ecEJZzH5dO" opacity="1" fill-opacity="0" stroke="#000000" stroke-width="1" stroke-opacity="0"></use></g></g><g><use xlink:href="#c2r1wJgK1C" opacity="1" fill="#e6e6e6" fill-opacity="1"></use><g><use xlink:href="#c2r1wJgK1C" opacity="1" fill-opacity="0" stroke="#000000" stroke-width="1" stroke-opacity="0"></use></g></g><g><use xlink:href="#biNv91Xjk" opacity="1" fill="#000000" fill-opacity="0"></use><g><use xlink:href="#biNv91Xjk" opacity="1" fill-opacity="0" stroke="#000000" stroke-width="1" stroke-opacity="0"></use></g></g><g><use xlink:href="#e1Wj4HJAyR" opacity="1" fill="#0ab671" fill-opacity="1"></use><g><use xlink:href="#e1Wj4HJAyR" opacity="1" fill-opacity="0" stroke="#000000" stroke-width="1" stroke-opacity="0"></use></g></g><g><use xlink:href="#d2vQhAYBB7" opacity="1" fill="#000000" fill-opacity="0"></use><g><use xlink:href="#d2vQhAYBB7" opacity="1" fill-opacity="0" stroke="#000000" stroke-width="1" stroke-opacity="0"></use></g></g><g><use xlink:href="#aCgI4ayzX" opacity="1" fill="#1cb779" fill-opacity="1"></use><g><use xlink:href="#aCgI4ayzX" opacity="1" fill-opacity="0" stroke="#000000" stroke-width="1" stroke-opacity="0"></use></g></g><g><use xlink:href="#c1ag6CHn6" opacity="1" fill="#000000" fill-opacity="0"></use><g><use xlink:href="#c1ag6CHn6" opacity="1" fill-opacity="0" stroke="#000000" stroke-width="1" stroke-opacity="0"></use></g></g><g><use xlink:href="#bllLWyMMF" opacity="1" fill="#e6e6e6" fill-opacity="1"></use><g><use xlink:href="#bllLWyMMF" opacity="1" fill-opacity="0" stroke="#000000" stroke-width="1" stroke-opacity="0"></use></g></g><g><use xlink:href="#b1wC35WtF3" opacity="1" fill="#000000" fill-opacity="0"></use><g><use xlink:href="#b1wC35WtF3" opacity="1" fill-opacity="0" stroke="#000000" stroke-width="1" stroke-opacity="0"></use></g></g><g><use xlink:href="#ceJTcKCE0" opacity="1" fill="#e6e6e6" fill-opacity="1"></use><g><use xlink:href="#ceJTcKCE0" opacity="1" fill-opacity="0" stroke="#000000" stroke-width="1" stroke-opacity="0"></use></g></g><g><use xlink:href="#bRzSvcER" opacity="1" fill="#000000" fill-opacity="0"></use><g><use xlink:href="#bRzSvcER" opacity="1" fill-opacity="0" stroke="#000000" stroke-width="1" stroke-opacity="0"></use></g></g><g><use xlink:href="#b2u0bAoBZd" opacity="1" fill="#d5d5cf" fill-opacity="1"></use><g><use xlink:href="#b2u0bAoBZd" opacity="1" fill-opacity="0" stroke="#000000" stroke-width="1" stroke-opacity="0"></use></g></g><g><use xlink:href="#cDOomGNse" opacity="1" fill="#0ab671" fill-opacity="1"></use><g><use xlink:href="#cDOomGNse" opacity="1" fill-opacity="0" stroke="#000000" stroke-width="1" stroke-opacity="0"></use></g></g><g><use xlink:href="#a8Dk6vEUi" opacity="1" fill="#000000" fill-opacity="0"></use><g><use xlink:href="#a8Dk6vEUi" opacity="1" fill-opacity="0" stroke="#000000" stroke-width="1" stroke-opacity="0"></use></g></g><g><use xlink:href="#ceA5xtA8B" opacity="1" fill="#f2a930" fill-opacity="1"></use><g><use xlink:href="#ceA5xtA8B" opacity="1" fill-opacity="0" stroke="#000000" stroke-width="1" stroke-opacity="0"></use></g></g><g><use xlink:href="#a3y2jZm8Ey" opacity="1" fill="#f2a930" fill-opacity="1"></use><g><use xlink:href="#a3y2jZm8Ey" opacity="1" fill-opacity="0" stroke="#000000" stroke-width="1" stroke-opacity="0"></use></g></g><g><use xlink:href="#a31wUo8LPg" opacity="1" fill="#f2a930" fill-opacity="1"></use><g><use xlink:href="#a31wUo8LPg" opacity="1" fill-opacity="0" stroke="#000000" stroke-width="1" stroke-opacity="0"></use></g></g><g><use xlink:href="#e5qmhTkH3X" opacity="1" fill="#f2a930" fill-opacity="1"></use><g><use xlink:href="#e5qmhTkH3X" opacity="1" fill-opacity="0" stroke="#000000" stroke-width="1" stroke-opacity="0"></use></g></g><g><g><use xlink:href="#b3Bxv9dV02" opacity="1" fill-opacity="0" stroke="#07327a" stroke-width="1" stroke-opacity="1"></use></g></g></g></g></svg>