<?xml version="1.0" encoding="iso-8859-1"?>
<!-- Generator: Adobe Illustrator 19.0.0, SVG Export Plug-In . SVG Version: 6.00 Build 0)  -->
<svg version="1.1" id="Layer_1" xmlns="http://www.w3.org/2000/svg" xmlns:xlink="http://www.w3.org/1999/xlink" x="0px" y="0px"
	 viewBox="0 0 512 512" style="enable-background:new 0 0 512 512;" xml:space="preserve">
<path style="fill:#F3C74F;" d="M388.855,425.737c-19.01-1.664-36.852-9.073-49.903-21.304c-8.598-8.058-9.037-21.56-0.979-30.158
	c8.057-8.598,21.56-9.037,30.158-0.979c7.464,6.995,22.535,12.512,39.372,9.073c13.193-2.696,31.549-11.887,44.086-40.364
	c4.748-10.784,17.342-15.674,28.124-10.931c10.785,4.748,15.679,17.34,10.931,28.125c-15.514,35.242-42.007,58.318-74.597,64.979
	C406.978,426.029,397.786,426.518,388.855,425.737z"/>
<circle style="fill:#0081C6;" cx="462.288" cy="255.74" r="49.004"/>
<circle style="fill:#F3C74F;" cx="462.288" cy="255.74" r="22.878"/>
<circle style="fill:#0081C6;" cx="295.136" cy="88.589" r="49.004"/>
<circle style="fill:#F3C74F;" cx="295.136" cy="88.589" r="22.878"/>
<path style="opacity:0.2;enable-background:new    ;" d="M271.092,118.713c-19.137-19.137-19.137-50.164,0-69.301
	c3.13-3.13,6.583-5.738,10.246-7.845c-7.632,2.232-14.83,6.355-20.85,12.376c-19.136,19.137-19.137,50.164,0,69.301
	c16.007,16.007,40.327,18.615,59.056,7.845C302.911,135.953,284.209,131.83,271.092,118.713z"/>
<path style="fill:#40BAB3;" d="M392.566,376.059c59.952-59.952,96.338-196.299,37.445-255.192S234.77,98.36,174.818,158.312
	s-59.807,157.296,0.322,217.426S332.615,436.012,392.566,376.059z"/>
<path style="fill:#FFFFFF;" d="M156.744,180.055c-41.063,59.821-34.911,142.375,18.397,195.683s135.863,59.46,195.683,18.397
	L156.744,180.055z"/>
<path style="fill:#0081C6;" d="M131.696,243.649c-7.06,46.692,7.424,96.067,43.445,132.089s85.396,50.506,132.089,43.445
	L131.696,243.649z"/>
<path style="opacity:0.2;enable-background:new    ;" d="M198.23,375.738c-60.129-60.13-60.274-157.474-0.322-217.426
	c36.092-36.093,99.872-63.633,157.771-66.995c-63.228-3.938-139.887,26.02-180.862,66.995
	c-59.952,59.952-59.807,157.296,0.322,217.426c33.059,33.059,77.369,47.979,120.528,44.755
	C260.18,417.832,225.404,402.912,198.23,375.738z"/>
<g>
	<path style="fill:#394049;" d="M262.101,169.996c-2.107,0-4.215-0.804-5.824-2.412c-3.216-3.216-3.215-8.431,0.001-11.647
		l2.98-2.98c3.216-3.215,8.431-3.216,11.647,0.001c3.216,3.216,3.215,8.431-0.001,11.646l-2.98,2.98
		C266.317,169.191,264.209,169.996,262.101,169.996z"/>
	<path style="fill:#394049;" d="M389.118,297.012c-2.107,0-4.214-0.804-5.823-2.411c-3.216-3.216-3.217-8.431-0.001-11.646
		l2.98-2.981c3.216-3.217,8.431-3.218,11.647-0.001c3.216,3.216,3.217,8.431,0.001,11.646l-2.98,2.981
		C393.334,296.208,391.225,297.012,389.118,297.012z"/>
	<path style="fill:#394049;" d="M331.628,263.886c-5.972,0-11.942-2.272-16.488-6.818c-3.954-3.954-6.313-9.077-6.754-14.589
		c-5.319-0.434-10.515-2.679-14.575-6.74c-9.092-9.092-9.092-23.885-0.001-32.976c3.216-3.217,8.43-3.216,11.647-0.001
		c3.216,3.216,3.216,8.431,0,11.646c-2.67,2.67-2.67,7.015,0,9.685s7.014,2.669,9.683-0.001c3.216-3.215,8.431-3.216,11.647,0.001
		c1.607,1.609,2.411,3.716,2.411,5.824c0,2.107-0.805,4.215-2.412,5.823c-1.292,1.293-2.005,3.012-2.005,4.84
		c0,1.829,0.713,3.548,2.006,4.841c2.67,2.671,7.014,2.67,9.683,0c3.216-3.215,8.431-3.216,11.647,0.001
		c3.216,3.216,3.215,8.431-0.001,11.647C343.57,261.613,337.598,263.886,331.628,263.886z"/>
</g>
<g>
	<path style="fill:#F0B0B7;" d="M247.511,202.762c-2.107,0-4.215-0.804-5.823-2.411l-18.176-18.176
		c-3.216-3.217-3.216-8.431,0-11.647c3.216-3.215,8.431-3.215,11.646,0l18.176,18.176c3.216,3.217,3.216,8.431,0,11.647
		C251.726,201.958,249.618,202.762,247.511,202.762z"/>
	<path style="fill:#F0B0B7;" d="M374.527,329.779c-2.107,0-4.215-0.804-5.823-2.412l-18.176-18.177
		c-3.216-3.216-3.216-8.431,0-11.646c3.216-3.215,8.431-3.216,11.647,0.001l18.176,18.177c3.216,3.216,3.216,8.431,0,11.647
		C378.742,328.975,376.634,329.779,374.527,329.779z"/>
</g>
<path style="fill:#A27B5A;" d="M5.015,494.233l210.293,17.729c6.246,0.526,11.606-4.401,11.606-10.668V10.708
	c0-6.268-5.361-11.195-11.606-10.669L5.015,17.767c-2.434,0.205-4.306,2.241-4.306,4.684v467.096
	C0.709,491.992,2.58,494.028,5.015,494.233z"/>
<circle style="opacity:0.2;enable-background:new    ;" cx="179.262" cy="275.779" r="20.112"/>
<circle style="fill:#F3C74F;" cx="186.63" cy="266.402" r="20.112"/>
<g>
	<path style="opacity:0.4;fill:#FFFFFF;enable-background:new    ;" d="M188.05,246.358c-3.684,2.904-6.058,7.395-6.058,12.45
		c0,8.757,7.099,15.857,15.857,15.857c2.895,0,5.602-0.788,7.939-2.144c0.617-1.931,0.955-3.986,0.955-6.121
		C206.742,255.77,198.492,247.089,188.05,246.358z"/>
	<path style="opacity:0.1;fill:#FFFFFF;enable-background:new    ;" d="M215.309,0.039L123.727,7.76
		c-9.634,13.453-15.323,29.923-15.323,47.732c0,45.342,36.756,82.098,82.098,82.098c13.081,0,25.438-3.074,36.413-8.516V10.708
		C226.915,4.439,221.555-0.487,215.309,0.039z"/>
</g>
<g>
</g>
<g>
</g>
<g>
</g>
<g>
</g>
<g>
</g>
<g>
</g>
<g>
</g>
<g>
</g>
<g>
</g>
<g>
</g>
<g>
</g>
<g>
</g>
<g>
</g>
<g>
</g>
<g>
</g>
</svg>
