<?xml version="1.0" encoding="iso-8859-1"?>
<!-- Generator: Adobe Illustrator 19.0.0, SVG Export Plug-In . SVG Version: 6.00 Build 0)  -->
<svg version="1.1" id="Capa_1" xmlns="http://www.w3.org/2000/svg" xmlns:xlink="http://www.w3.org/1999/xlink" x="0px" y="0px"
	 viewBox="0 0 469.333 469.333" style="enable-background:new 0 0 469.333 469.333;" xml:space="preserve">
<g>
	<g>
		<g>
			<path d="M316.875,301.792c-4.167-4.167-10.917-4.167-15.083,0s-4.167,10.917,0,15.083l42.667,42.667
				c2.083,2.083,4.813,3.125,7.542,3.125c2.729,0,5.458-1.042,7.542-3.125c4.167-4.167,4.167-10.917,0-15.083L316.875,301.792z"/>
			<path d="M152.458,167.542c2.083,2.083,4.813,3.125,7.542,3.125c2.729,0,5.458-1.042,7.542-3.125
				c4.167-4.167,4.167-10.917,0-15.083l-42.667-42.667c-4.167-4.167-10.917-4.167-15.083,0s-4.167,10.917,0,15.083L152.458,167.542z
				"/>
			<path d="M394.667,266.667h-53.333c-5.896,0-10.667,4.771-10.667,10.667c0,5.896,4.771,10.667,10.667,10.667h53.333
				c5.896,0,10.667-4.771,10.667-10.667C405.333,271.437,400.563,266.667,394.667,266.667z"/>
			<path d="M277.333,320c-5.896,0-10.667,4.771-10.667,10.667v64c0,5.896,4.771,10.667,10.667,10.667
				c5.896,0,10.667-4.771,10.667-10.667v-64C288,324.771,283.229,320,277.333,320z"/>
			<path d="M192,149.333c5.896,0,10.667-4.771,10.667-10.667v-64C202.667,68.771,197.896,64,192,64
				c-5.896,0-10.667,4.771-10.667,10.667v64C181.333,144.562,186.104,149.333,192,149.333z"/>
			<path d="M74.667,202.667h64c5.896,0,10.667-4.771,10.667-10.667c0-5.896-4.771-10.667-10.667-10.667h-64
				C68.771,181.333,64,186.104,64,192C64,197.896,68.771,202.667,74.667,202.667z"/>
			<path d="M451.125,51.285l-33.833-33.895c-23.146-23.188-64.771-23.188-87.917,0l-97.833,98.011
				c-11.573,11.594-18.208,27.644-18.208,44.038s6.635,32.444,18.208,44.038l1.833,1.837c4.167,4.174,10.917,4.174,15.083,0
				l15.083-15.111c4.167-4.174,4.167-10.936,0-15.111l-1.833-1.837c-3.625-3.632-5.708-8.672-5.708-13.817
				s2.083-10.185,5.708-13.817l97.833-98.011c7.25-7.263,20.333-7.263,27.583,0l33.833,33.895c3.625,3.632,5.708,8.672,5.708,13.817
				s-2.083,10.185-5.708,13.817l-97.833,98.011c-7.25,7.263-20.333,7.263-27.583,0l-1.833-1.837c-4.167-4.174-10.917-4.174-15.083,0
				l-15.083,15.111c-4.167,4.174-4.167,10.936,0,15.111l1.833,1.837c11.573,11.594,27.594,18.241,43.958,18.241
				c16.365,0,32.385-6.647,43.958-18.241l97.833-98.011c11.573-11.594,18.208-27.644,18.208-44.038S462.698,62.879,451.125,51.285z"
				/>
			<path d="M235.958,263.169c-4.167-4.174-10.917-4.174-15.083,0l-15.083,15.111c-4.167,4.174-4.167,10.936,0,15.111l1.833,1.837
				c3.625,3.632,5.708,8.672,5.708,13.817s-2.083,10.185-5.708,13.817l-97.833,98.011c-7.25,7.263-20.333,7.263-27.583,0
				l-33.833-33.895c-3.625-3.632-5.708-8.672-5.708-13.817s2.083-10.185,5.708-13.817l97.833-98.011
				c7.25-7.263,20.333-7.263,27.583,0l1.833,1.837c4.167,4.174,10.917,4.174,15.083,0l15.083-15.111
				c4.167-4.174,4.167-10.936,0-15.111l-1.833-1.837c-23.146-23.188-64.771-23.188-87.917,0l-97.833,98.011
				C6.635,340.715,0,356.765,0,373.159s6.635,32.444,18.208,44.038l33.833,33.895C63.615,462.686,79.635,469.333,96,469.333
				c16.365,0,32.385-6.647,43.958-18.241l97.833-98.011C249.365,341.488,256,325.438,256,309.043
				c0-16.394-6.635-32.444-18.208-44.038L235.958,263.169z"/>
		</g>
	</g>
</g>
<g>
</g>
<g>
</g>
<g>
</g>
<g>
</g>
<g>
</g>
<g>
</g>
<g>
</g>
<g>
</g>
<g>
</g>
<g>
</g>
<g>
</g>
<g>
</g>
<g>
</g>
<g>
</g>
<g>
</g>
</svg>
