<?xml version="1.0"?>
<svg xmlns="http://www.w3.org/2000/svg" xmlns:xlink="http://www.w3.org/1999/xlink" xmlns:svgjs="http://svgjs.com/svgjs" version="1.1" width="512" height="512" x="0" y="0" viewBox="0 0 512.00001 512" style="enable-background:new 0 0 512 512" xml:space="preserve" class=""><g><path xmlns="http://www.w3.org/2000/svg" d="m0 113.292969h113.292969v-113.292969h-113.292969zm30.003906-83.289063h53.289063v53.289063h-53.289063zm0 0" fill="#178939" data-original="#000000" style="" class=""/><path xmlns="http://www.w3.org/2000/svg" d="m149.296875 0v113.292969h362.703125v-113.292969zm332.699219 83.292969h-302.695313v-53.289063h302.695313zm0 0" fill="#178939" data-original="#000000" style="" class=""/><path xmlns="http://www.w3.org/2000/svg" d="m0 260.300781h113.292969v-113.292969h-113.292969zm30.003906-83.292969h53.289063v53.289063h-53.289063zm0 0" fill="#178939" data-original="#000000" style="" class=""/><path xmlns="http://www.w3.org/2000/svg" d="m149.296875 260.300781h362.703125v-113.292969h-362.703125zm30.003906-83.292969h302.695313v53.289063h-302.695313zm0 0" fill="#178939" data-original="#000000" style="" class=""/><path xmlns="http://www.w3.org/2000/svg" d="m0 407.308594h113.292969v-113.296875h-113.292969zm30.003906-83.292969h53.289063v53.289063h-53.289063zm0 0" fill="#178939" data-original="#000000" style="" class=""/><path xmlns="http://www.w3.org/2000/svg" d="m149.296875 407.308594h362.703125v-113.296875h-362.703125zm30.003906-83.292969h302.695313v53.289063h-302.695313zm0 0" fill="#178939" data-original="#000000" style="" class=""/></g></svg>
