<?xml version="1.0"?>
<svg xmlns="http://www.w3.org/2000/svg" xmlns:xlink="http://www.w3.org/1999/xlink" xmlns:svgjs="http://svgjs.com/svgjs" version="1.1" width="512" height="512" x="0" y="0" viewBox="0 0 447.243 447.243" style="enable-background:new 0 0 512 512" xml:space="preserve" class=""><g>
<g xmlns="http://www.w3.org/2000/svg">
	<g>
		<path d="M437.883,201.174c-0.008-0.008-0.017-0.017-0.025-0.025l-160-160c-12.552-12.441-32.813-12.351-45.254,0.201    c-0.983,0.992-1.9,2.047-2.746,3.159c-8.971,13.381-7.013,31.276,4.64,42.4l88.32,88.64c4.695,4.7,10.093,8.641,16,11.68    l9.76,5.12h-314.4c-16.099-0.677-30.349,10.332-33.76,26.08c-2.829,17.445,9.019,33.881,26.465,36.71    c1.83,0.297,3.682,0.434,5.535,0.41h315.52l-6.88,3.2c-6.713,3.135-12.83,7.412-18.08,12.64l-88.48,88.48    c-11.653,11.124-13.611,29.019-4.64,42.4c10.441,14.259,30.464,17.355,44.724,6.914c1.152-0.844,2.247-1.764,3.276-2.754l160-160    C450.361,233.939,450.372,213.678,437.883,201.174z" fill="#ffffff" data-original="#000000" style=""/>
	</g>
</g>
<g xmlns="http://www.w3.org/2000/svg">
</g>
<g xmlns="http://www.w3.org/2000/svg">
</g>
<g xmlns="http://www.w3.org/2000/svg">
</g>
<g xmlns="http://www.w3.org/2000/svg">
</g>
<g xmlns="http://www.w3.org/2000/svg">
</g>
<g xmlns="http://www.w3.org/2000/svg">
</g>
<g xmlns="http://www.w3.org/2000/svg">
</g>
<g xmlns="http://www.w3.org/2000/svg">
</g>
<g xmlns="http://www.w3.org/2000/svg">
</g>
<g xmlns="http://www.w3.org/2000/svg">
</g>
<g xmlns="http://www.w3.org/2000/svg">
</g>
<g xmlns="http://www.w3.org/2000/svg">
</g>
<g xmlns="http://www.w3.org/2000/svg">
</g>
<g xmlns="http://www.w3.org/2000/svg">
</g>
<g xmlns="http://www.w3.org/2000/svg">
</g>
</g></svg>
