<?xml version="1.0"?>
<svg xmlns="http://www.w3.org/2000/svg" xmlns:xlink="http://www.w3.org/1999/xlink" xmlns:svgjs="http://svgjs.com/svgjs" version="1.1" width="512" height="512" x="0" y="0" viewBox="0 0 512 511" style="enable-background:new 0 0 512 512" xml:space="preserve" class=""><g><path xmlns="http://www.w3.org/2000/svg" d="m236.667969 374.5c0 11.046875-8.953125 20-20 20h-196.667969c-11.046875 0-20-8.953125-20-20s8.953125-20 20-20h196.667969c11.042969 0 20 8.953125 20 20zm127-235.667969h60c11.046875 0 20-8.953125 20-20s-8.953125-20-20-20h-60c-11.046875 0-20 8.953125-20 20s8.953125 20 20 20zm-147 137h-196.667969c-11.046875 0-20 8.953125-20 20s8.953125 20 20 20h196.667969c11.046875 0 20-8.953125 20-20s-8.957031-20-20-20zm58.664062-157c0-65.246093 53.085938-118.332031 118.335938-118.332031 65.246093 0 118.332031 53.085938 118.332031 118.332031 0 65.25-53.085938 118.335938-118.332031 118.335938-65.25 0-118.335938-53.085938-118.335938-118.335938zm40 0c0 43.195313 35.140625 78.335938 78.332031 78.335938 43.195313 0 78.335938-35.140625 78.335938-78.335938 0-43.191406-35.140625-78.332031-78.332031-78.332031-43.195313 0-78.335938 35.140625-78.335938 78.332031zm176.667969 157h-196.667969c-11.046875 0-20 8.953125-20 20s8.953125 20 20 20h196.667969c11.046875 0 20-8.953125 20-20s-8.953125-20-20-20zm0 78.667969h-196.667969c-11.046875 0-20 8.953125-20 20s8.953125 20 20 20h196.667969c11.046875 0 20-8.953125 20-20s-8.953125-20-20-20zm-343.667969-255.667969h-10v-10c0-11.046875-8.953125-20-20-20s-20 8.953125-20 20v10h-10c-11.046875 0-20 8.953125-20 20s8.953125 20 20 20h10v10c0 11.046875 8.953125 20 20 20s20-8.953125 20-20v-10h10c11.046875 0 20-8.953125 20-20s-8.953125-20-20-20zm88.335938 20c0 65.25-53.085938 118.335938-118.332031 118.335938-65.25 0-118.335938-53.085938-118.335938-118.335938 0-65.246093 53.085938-118.332031 118.332031-118.332031 65.25 0 118.335938 53.085938 118.335938 118.332031zm-40 0c0-43.191406-35.140625-78.332031-78.332031-78.332031-43.195313 0-78.335938 35.140625-78.335938 78.332031 0 43.195313 35.140625 78.335938 78.332031 78.335938 43.195313 0 78.335938-35.140625 78.335938-78.335938zm0 0" fill="#178939" data-original="#000000" style="" class=""/></g></svg>
