<svg id="Capa_1" enable-background="new 0 0 497 497" height="512" viewBox="0 0 497 497" width="512" xmlns="http://www.w3.org/2000/svg"><g><path d="m99.412 96.834v367.033c0 18.299 14.834 33.133 33.133 33.133h314.769c18.299 0 33.133-14.834 33.133-33.133v-367.033z" fill="#f9f5f3"/><path d="m457.447 96.834v367.033c0 18.299-14.834 33.133-33.133 33.133h23c18.299 0 33.133-14.834 33.133-33.133v-367.033z" fill="#f9eae0"/><g><path d="m217.914 386.412-129.302-129.302-46.858 46.858 129.302 129.302c.82.82 1.799 1.443 2.864 1.84.885.33 1.851-.455 2.813-.455l7.121.958 36.403-36.403-3.248-6.514c.001-2.122 2.406-4.784.905-6.284z" fill="#a0c8ff"/><path d="m217.914 386.412-129.302-129.302-11.476 11.476 133.806 133.806c1.097 1.097 1.838 2.481 2.159 3.974l7.156-7.156-1.186-6.995c0-.97 1.01-2.068.675-2.959-.396-1.058-1.017-2.03-1.832-2.844z" fill="#91b2fa"/><g><g><path d="m231.972 454.827c-1.92 0-3.839-.732-5.303-2.197l-26.774-26.774c-2.929-2.929-2.929-7.678 0-10.607s7.678-2.929 10.607 0l26.774 26.774c2.929 2.929 2.929 7.678 0 10.606-1.465 1.465-3.384 2.198-5.304 2.198z" fill="#868eaf"/></g></g><path d="m125.046 256.992h15v181.819h-15z" fill="#91b2fa" transform="matrix(.707 -.707 .707 .707 -207.181 195.622)"/><path d="m220.258 427.612v-35.544c0-.966-.183-1.911-.515-2.799l-45.828 45.828c.888.332 1.833.515 2.799.515h35.544c4.418 0 8-3.581 8-8z" fill="#f9eae0"/><path d="m44.835 236.761-23.429 23.429c-6.47 6.47-6.47 16.959 0 23.429l23.429 23.429 46.858-46.858-23.429-23.429c-6.47-6.47-16.96-6.47-23.429 0z" fill="#fa8ebb"/><path d="m45.073 236.545c.078.075.162.139.238.215l34.905 34.905 11.476-11.476-23.429-23.429c-6.393-6.393-16.704-6.457-23.19-.215z" fill="#f57fb0"/></g><g><g><path d="m422.463 173.167h-265.067c-4.142 0-7.5-3.358-7.5-7.5s3.358-7.5 7.5-7.5h265.067c4.142 0 7.5 3.358 7.5 7.5s-3.358 7.5-7.5 7.5z" fill="#868eaf"/></g></g><g><g><path d="m422.463 222.867h-265.067c-4.142 0-7.5-3.358-7.5-7.5s3.358-7.5 7.5-7.5h265.067c4.142 0 7.5 3.358 7.5 7.5s-3.358 7.5-7.5 7.5z" fill="#868eaf"/></g></g><g><g><path d="m422.463 272.567h-265.067c-4.142 0-7.5-3.358-7.5-7.5s3.358-7.5 7.5-7.5h265.067c4.142 0 7.5 3.358 7.5 7.5s-3.358 7.5-7.5 7.5z" fill="#868eaf"/></g></g><g><g><path d="m422.463 322.267h-265.067c-4.142 0-7.5-3.358-7.5-7.5s3.358-7.5 7.5-7.5h265.067c4.142 0 7.5 3.358 7.5 7.5s-3.358 7.5-7.5 7.5z" fill="#868eaf"/></g></g><g><g><path d="m422.463 371.967h-173.95c-4.142 0-7.5-3.358-7.5-7.5s3.358-7.5 7.5-7.5h173.95c4.142 0 7.5 3.358 7.5 7.5 0 4.143-3.358 7.5-7.5 7.5z" fill="#868eaf"/></g></g><path d="m447.314 33.134h-314.769c-18.299 0-33.133 14.834-33.133 33.133v49.701h381.034v-49.702c.001-18.298-14.833-33.132-33.132-33.132z" fill="#ffce69"/><path d="m447.314 33.134h-23c18.299 0 33.133 14.834 33.133 33.133v49.701h23v-49.702c0-18.298-14.834-33.132-33.133-33.132z" fill="#ffbd61"/><g fill="#bdd3dd"><path d="m149.113 49.7c0 9.15 7.417 16.567 16.567 16.567s16.567-7.417 16.567-16.567v-33.133c0-9.15-7.418-16.567-16.567-16.567-9.15 0-16.567 7.417-16.567 16.567z"/><path d="m397.613 49.7c0 9.15 7.417 16.567 16.567 16.567s16.567-7.417 16.567-16.567v-33.133c0-9.15-7.417-16.567-16.567-16.567s-16.567 7.417-16.567 16.567z"/><path d="m231.946 49.7c0 9.15 7.417 16.567 16.567 16.567s16.567-7.417 16.567-16.567v-33.133c0-9.15-7.417-16.567-16.567-16.567s-16.567 7.417-16.567 16.567z"/><path d="m314.78 49.7c0 9.15 7.417 16.567 16.567 16.567s16.567-7.417 16.567-16.567v-33.133c0-9.15-7.417-16.567-16.567-16.567s-16.567 7.417-16.567 16.567z"/></g><path d="m414.18 0c-4.47 0-8.52 1.779-11.5 4.657 3.119 3.013 5.067 7.231 5.067 11.91v33.133c0 4.679-1.948 8.897-5.067 11.91 2.98 2.878 7.03 4.657 11.5 4.657 9.15 0 16.567-7.417 16.567-16.567v-33.133c0-9.15-7.417-16.567-16.567-16.567z" fill="#abc4d6"/><path d="m331.347 0c-4.471 0-8.52 1.779-11.5 4.657 3.119 3.013 5.067 7.231 5.067 11.91v33.133c0 4.679-1.948 8.897-5.067 11.91 2.98 2.878 7.029 4.657 11.5 4.657 9.15 0 16.567-7.417 16.567-16.567v-33.133c0-9.15-7.418-16.567-16.567-16.567z" fill="#abc4d6"/><path d="m248.513 0c-4.47 0-8.52 1.779-11.5 4.657 3.119 3.013 5.067 7.231 5.067 11.91v33.133c0 4.679-1.948 8.897-5.067 11.91 2.98 2.878 7.03 4.657 11.5 4.657 9.15 0 16.567-7.417 16.567-16.567v-33.133c0-9.15-7.417-16.567-16.567-16.567z" fill="#abc4d6"/><path d="m165.68 0c-4.47 0-8.52 1.779-11.5 4.657 3.119 3.013 5.067 7.231 5.067 11.91v33.133c0 4.679-1.948 8.897-5.067 11.91 2.98 2.878 7.03 4.657 11.5 4.657 9.15 0 16.567-7.417 16.567-16.567v-33.133c0-9.15-7.417-16.567-16.567-16.567z" fill="#abc4d6"/></g></svg>